<svg width="24" height="24" viewBox="0 0 24 24" fill="none" xmlns="http://www.w3.org/2000/svg">
<rect width="24" height="24" fill="white"/>
<path d="M6 5.5H18C18.8284 5.5 19.5 6.17157 19.5 7V18C19.5 18.8284 18.8284 19.5 18 19.5H6C5.17157 19.5 4.5 18.8284 4.5 18V7L4.50781 6.84668C4.58461 6.09028 5.22334 5.5 6 5.5Z" fill="black" stroke="black"/>
<rect x="7" y="4" width="1" height="4" rx="0.5" fill="black"/>
<rect x="16" y="4" width="1" height="4" rx="0.5" fill="black"/>
<mask id="path-4-inside-1_25_211" fill="white">
<rect x="9" y="9" width="6" height="1" rx="0.4"/>
</mask>
<rect x="9" y="9" width="6" height="1" rx="0.4" fill="white" stroke="white" mask="url(#path-4-inside-1_25_211)"/>
<rect x="7.25" y="12.25" width="0.5" height="0.5" rx="0.25" fill="white" stroke="black" stroke-width="0.5"/>
<rect x="7.25" y="14.25" width="0.5" height="0.5" rx="0.25" fill="white" stroke="black" stroke-width="0.5"/>
<rect x="7.25" y="16.25" width="0.5" height="0.5" rx="0.25" fill="white" stroke="black" stroke-width="0.5"/>
<rect x="10.25" y="14.25" width="0.5" height="0.5" rx="0.25" fill="white" stroke="black" stroke-width="0.5"/>
<rect x="10.25" y="16.25" width="0.5" height="0.5" rx="0.25" fill="white" stroke="black" stroke-width="0.5"/>
<rect x="13.25" y="14.25" width="0.5" height="0.5" rx="0.25" fill="white" stroke="black" stroke-width="0.5"/>
<rect x="13.25" y="16.25" width="0.5" height="0.5" rx="0.25" fill="white" stroke="black" stroke-width="0.5"/>
<rect x="16.25" y="14.25" width="0.5" height="0.5" rx="0.25" fill="white" stroke="black" stroke-width="0.5"/>
<rect x="16.25" y="16.25" width="0.5" height="0.5" rx="0.25" fill="white" stroke="black" stroke-width="0.5"/>
<rect x="10.25" y="12.25" width="0.5" height="0.5" rx="0.25" fill="white" stroke="black" stroke-width="0.5"/>
<rect x="13.25" y="12.25" width="0.5" height="0.5" rx="0.25" fill="white" stroke="black" stroke-width="0.5"/>
<rect x="16.25" y="12.25" width="0.5" height="0.5" rx="0.25" fill="white" stroke="black" stroke-width="0.5"/>
</svg>
