<svg width="24" height="24" viewBox="0 0 24 24" fill="none" xmlns="http://www.w3.org/2000/svg">
<rect width="24" height="24" fill="white"/>
<path d="M20 12C20 16.4183 16.4183 20 12 20C7.58172 20 4 16.4183 4 12C4 7.58172 7.58172 4 12 4C16.4183 4 20 7.58172 20 12ZM4.7596 12C4.7596 15.9988 8.00124 19.2404 12 19.2404C15.9988 19.2404 19.2404 15.9988 19.2404 12C19.2404 8.00124 15.9988 4.7596 12 4.7596C8.00124 4.7596 4.7596 8.00124 4.7596 12Z" fill="black"/>
<path d="M12 9V11.973C12 12.1882 12.1377 12.3792 12.3419 12.4473L17 14" stroke="black" stroke-width="0.7" stroke-linecap="round"/>
</svg>
