<svg width="24" height="24" viewBox="0 0 24 24" fill="none" xmlns="http://www.w3.org/2000/svg">
<path d="M18.4 11.6667L12.3607 5.37572C12.1639 5.17074 11.8361 5.17074 11.6393 5.37572L5.6 11.6667L7.1221 19.5943C7.16732 19.8298 7.37334 20 7.61313 20H10.7C10.9761 20 11.2 19.7761 11.2 19.5V19.4643V16.2143C11.2 15.9381 11.4239 15.7143 11.7 15.7143H12.3C12.5761 15.7143 12.8 15.9381 12.8 16.2143V19.5C12.8 19.7761 13.0239 20 13.3 20H16.3869C16.6267 20 16.8327 19.8298 16.8779 19.5943L18.4 11.6667Z" fill="black"/>
<path d="M4 13.3333L5.6 11.6667M20 13.3333L18.4 11.6667M18.4 11.6667L12.3607 5.37572C12.1639 5.17074 11.8361 5.17074 11.6393 5.37572L5.6 11.6667M18.4 11.6667L16.8779 19.5943C16.8327 19.8298 16.6267 20 16.3869 20H13.3C13.0239 20 12.8 19.7761 12.8 19.5V16.2143C12.8 15.9381 12.5761 15.7143 12.3 15.7143H11.7C11.4239 15.7143 11.2 15.9381 11.2 16.2143V19.4643V19.5C11.2 19.7761 10.9761 20 10.7 20H7.61313C7.37334 20 7.16732 19.8298 7.1221 19.5943L5.6 11.6667" stroke="black" stroke-width="0.8" stroke-linecap="round"/>
</svg>
