<svg width="24" height="24" viewBox="0 0 24 24" fill="none" xmlns="http://www.w3.org/2000/svg">
<rect width="24" height="24" fill="white"/>
<path d="M20 15.7791V5.1C20 5.04477 19.9552 5 19.9 5H11.1765H5.1C5.04477 5 5 5.04477 5 5.1V15.7791C5 15.8343 5.04477 15.8791 5.1 15.8791H11.1105C11.1505 15.8791 11.1867 15.903 11.2024 15.9398L12.8779 19.8522C12.9071 19.9203 12.9976 19.9342 13.0458 19.8779L16.4407 15.9141C16.4597 15.8919 16.4874 15.8791 16.5166 15.8791H19.9C19.9552 15.8791 20 15.8343 20 15.7791Z" stroke="#838383" stroke-width="0.8" stroke-linecap="round"/>
<path d="M9 11L16 11" stroke="#838383" stroke-width="0.8" stroke-linecap="round"/>
</svg>
