<svg width="24" height="24" viewBox="0 0 24 24" fill="none" xmlns="http://www.w3.org/2000/svg">
<rect width="24" height="24" fill="white"/>
<rect x="8.25928" y="14.4582" width="12.5257" height="1.46783" rx="0.733914" transform="rotate(-45 8.25928 14.4582)" fill="black"/>
<rect x="16.829" y="7" width="3.12668" height="3.4065" rx="0.5" transform="rotate(45 16.829 7)" fill="black"/>
<path d="M11 16.5C11 18.433 9.433 20 7.5 20C5.567 20 4 18.433 4 16.5C4 14.567 5.567 13 7.5 13C9.433 13 11 14.567 11 16.5ZM5.70508 16.5C5.70508 17.4913 6.50869 18.2949 7.5 18.2949C8.49131 18.2949 9.29492 17.4913 9.29492 16.5C9.29492 15.5087 8.49131 14.7051 7.5 14.7051C6.50869 14.7051 5.70508 15.5087 5.70508 16.5Z" fill="black"/>
</svg>
