<svg width="24" height="24" viewBox="0 0 24 24" fill="none" xmlns="http://www.w3.org/2000/svg">
<rect width="24" height="24" fill="white"/>
<rect x="4" y="10" width="16" height="10" rx="0.2" fill="black"/>
<path d="M18 10C18 9.21207 17.8448 8.43185 17.5433 7.7039C17.2417 6.97595 16.7998 6.31451 16.2426 5.75736C15.6855 5.20021 15.0241 4.75825 14.2961 4.45672C13.5681 4.15519 12.7879 4 12 4C11.2121 4 10.4319 4.15519 9.7039 4.45672C8.97595 4.75825 8.31451 5.20021 7.75736 5.75736C7.20021 6.31451 6.75825 6.97595 6.45672 7.7039C6.15519 8.43185 6 9.21207 6 10H7.8226C7.8226 9.45142 7.93065 8.90821 8.14059 8.40138C8.35052 7.89455 8.65823 7.43404 9.04613 7.04613C9.43404 6.65823 9.89455 6.35052 10.4014 6.14059C10.9082 5.93065 11.4514 5.8226 12 5.8226C12.5486 5.8226 13.0918 5.93065 13.5986 6.14059C14.1054 6.35052 14.566 6.65823 14.9539 7.04613C15.3418 7.43404 15.6495 7.89455 15.8594 8.40138C16.0693 8.9082 16.1774 9.45142 16.1774 10H18Z" fill="black"/>
<path d="M12.7778 13.6667C12.7778 14.0349 12.6761 14.1852 12.1852 14.1852C11.5926 14.1852 11 14.0349 11 13.6667C11 13.2985 11.398 13 11.8889 13C12.3798 13 12.7778 13.2985 12.7778 13.6667Z" fill="white"/>
<path d="M11.5926 14.128L12.1852 14.1852L12.1852 16.5556H11.5926V14.128Z" fill="white"/>
</svg>
