<svg width="24" height="24" viewBox="0 0 24 24" fill="none" xmlns="http://www.w3.org/2000/svg">
<path d="M11 6.40039C12.9882 6.40039 14.5996 8.01177 14.5996 10C14.5996 11.9882 12.9882 13.5996 11 13.5996C9.01177 13.5996 7.40039 11.9882 7.40039 10C7.40039 8.01177 9.01177 6.40039 11 6.40039Z" fill="black" stroke="black" stroke-width="0.8"/>
<path d="M17 12.3496C17.9113 12.3496 18.6504 13.0887 18.6504 14C18.6504 14.9113 17.9113 15.6504 17 15.6504C16.0887 15.6504 15.3496 14.9113 15.3496 14C15.3496 13.0887 16.0887 12.3496 17 12.3496Z" fill="black" stroke="#070707" stroke-width="0.7"/>
<path d="M5 19.6729C5 17.0921 7.09211 15 9.67287 15H11.3271C13.9079 15 16 17.0921 16 19.6729C16 19.8535 15.8535 20 15.6729 20H5.32713C5.14646 20 5 19.8535 5 19.6729Z" fill="black"/>
<path d="M19.7 20C19.8657 20 20.0015 19.8654 19.9915 19.7001C19.9646 19.2561 19.8722 18.9193 19.691 18.5849C19.4711 18.179 19.1521 17.8274 18.76 17.5586C18.3678 17.2898 17.9135 17.1115 17.434 17.038C17.0607 16.9808 16.6803 16.9884 16.3116 17.0595C16.1411 17.0924 16.0513 17.2737 16.1119 17.4364L16.993 19.8046C17.0367 19.9221 17.1488 20 17.2742 20H19.7Z" fill="black"/>
</svg>
