<svg width="24" height="24" viewBox="0 0 24 24" fill="none" xmlns="http://www.w3.org/2000/svg">
<rect width="24" height="24" fill="white"/>
<path d="M11 6.40039C12.9882 6.40039 14.5996 8.01177 14.5996 10C14.5996 11.9882 12.9882 13.5996 11 13.5996C9.01177 13.5996 7.40039 11.9882 7.40039 10C7.40039 8.01177 9.01177 6.40039 11 6.40039Z" stroke="black" stroke-width="0.8"/>
<path d="M17 12.3496C17.9113 12.3496 18.6504 13.0887 18.6504 14C18.6504 14.9113 17.9113 15.6504 17 15.6504C16.0887 15.6504 15.3496 14.9113 15.3496 14C15.3496 13.0887 16.0887 12.3496 17 12.3496Z" stroke="black" stroke-width="0.7"/>
<path d="M5 20C5 17.2386 7.23858 15 10 15H11C13.7614 15 16 17.2386 16 20" stroke="black" stroke-width="0.8"/>
<path d="M19.8 20C19.9105 20 20.0006 19.9104 19.9938 19.8001C19.9422 18.9757 19.5728 18.1823 18.9333 17.5304C18.2798 16.8643 17.3799 16.3823 16.3646 16.1519C16.2647 16.1292 16.1654 16.189 16.1355 16.287L16.0685 16.5058C16.0339 16.6193 16.1051 16.7375 16.2204 16.7653C17.0503 16.9657 17.785 17.3661 18.3224 17.9139C18.8546 18.4564 19.1654 19.1149 19.2161 19.8002C19.2243 19.9103 19.313 20 19.4235 20H19.8Z" fill="black"/>
</svg>
