<svg width="24" height="24" viewBox="0 0 24 24" fill="none" xmlns="http://www.w3.org/2000/svg">
<g clip-path="url(#clip0_24_103)">
<rect width="24" height="24" fill="white"/>
<path d="M12 4.40039C13.9882 4.40039 15.5996 6.01177 15.5996 8C15.5996 9.98823 13.9882 11.5996 12 11.5996C10.0118 11.5996 8.40039 9.98823 8.40039 8C8.40039 6.01177 10.0118 4.40039 12 4.40039Z" stroke="black" stroke-width="0.8"/>
<path d="M13 17H16.6H19" stroke="black" stroke-width="0.8" stroke-linecap="square"/>
<path d="M4.04895 20.2674C3.92113 19.269 4.04444 18.2568 4.40919 17.3102C4.77393 16.3636 5.37016 15.5085 6.151 14.8121C6.93185 14.1157 7.87602 13.597 8.90928 13.2967C9.94254 12.9964 11.0367 12.9228 12.1058 13.0816L11.9419 14.0331C11.0313 13.8979 10.0993 13.9606 9.21923 14.2163C8.33915 14.4721 7.53495 14.9139 6.86987 15.5071C6.20478 16.1003 5.69694 16.8286 5.38628 17.6349C5.07561 18.4411 4.97058 19.3033 5.07944 20.1536L4.04895 20.2674Z" fill="black"/>
</g>
<defs>
<clipPath id="clip0_24_103">
<rect width="24" height="24" fill="white"/>
</clipPath>
</defs>
</svg>
