<svg width="24" height="24" viewBox="0 0 24 24" fill="none" xmlns="http://www.w3.org/2000/svg">
<g clip-path="url(#clip0_24_108)">
<path d="M15.5 13L16.2858 15.4184H18.8287L16.7714 16.9131L17.5572 19.3316L15.5 17.8369L13.4428 19.3316L14.2286 16.9131L12.1713 15.4184H14.7142L15.5 13Z" fill="black"/>
<path d="M12 4.40039C13.9882 4.40039 15.5996 6.01177 15.5996 8C15.5996 9.98823 13.9882 11.5996 12 11.5996C10.0118 11.5996 8.40039 9.98823 8.40039 8C8.40039 6.01177 10.0118 4.40039 12 4.40039Z" stroke="black" stroke-width="0.8"/>
<path d="M5 19.5C5 18.6464 5.18106 17.8012 5.53284 17.0126C5.88463 16.2239 6.40024 15.5074 7.05025 14.9038C7.70026 14.3002 8.47194 13.8214 9.32122 13.4948C10.1705 13.1681 11.0807 13 12 13V13.9636C11.217 13.9636 10.4417 14.1068 9.71835 14.3851C8.99497 14.6633 8.3377 15.0711 7.78405 15.5852C7.23041 16.0993 6.79123 16.7096 6.4916 17.3813C6.19197 18.053 6.03775 18.773 6.03775 19.5H5Z" fill="black"/>
</g>
<defs>
<clipPath id="clip0_24_108">
<rect width="24" height="24" fill="white"/>
</clipPath>
</defs>
</svg>
