<svg width="24" height="24" viewBox="0 0 24 24" fill="none" xmlns="http://www.w3.org/2000/svg">
<g clip-path="url(#clip0_24_98)">
<path d="M12 4.40039C13.9882 4.40039 15.5996 6.01177 15.5996 8C15.5996 9.98823 13.9882 11.5996 12 11.5996C10.0118 11.5996 8.40039 9.98823 8.40039 8C8.40039 6.01177 10.0118 4.40039 12 4.40039Z" stroke="black" stroke-width="0.8"/>
<path d="M5.01696 19.9521C4.95301 19.1006 5.07032 18.2457 5.36217 17.4363C5.65403 16.6269 6.11472 15.8787 6.71794 15.2346C7.32116 14.5905 8.0551 14.0631 8.87786 13.6824C9.70061 13.3016 10.5961 13.0751 11.5131 13.0157L11.5853 13.977C10.8042 14.0276 10.0415 14.2205 9.34071 14.5448C8.63993 14.8691 8.0148 15.3184 7.50101 15.867C6.98721 16.4156 6.59482 17.0528 6.34623 17.7422C6.09764 18.4317 5.99773 19.1598 6.05219 19.8851L5.01696 19.9521Z" fill="black"/>
<path d="M15.5 13V16.5M15.5 20V16.5M15.5 16.5H12H19" stroke="black" stroke-width="0.8"/>
</g>
<defs>
<clipPath id="clip0_24_98">
<rect width="24" height="24" fill="white"/>
</clipPath>
</defs>
</svg>
