<svg width="24" height="24" viewBox="0 0 24 24" fill="none" xmlns="http://www.w3.org/2000/svg">
<rect width="24" height="24" fill="white"/>
<path d="M11 10V5.34251C11 5.15335 10.8467 5 10.6575 5H6C5.44772 5 5 5.44772 5 6V10C5 10.5523 5.44772 11 6 11H10C10.5523 11 11 10.5523 11 10Z" stroke="black" stroke-width="0.7" stroke-linecap="round"/>
<path d="M20 10V5.34251C20 5.15335 19.8467 5 19.6575 5H15C14.4477 5 14 5.44772 14 6V10C14 10.5523 14.4477 11 15 11H19C19.5523 11 20 10.5523 20 10Z" stroke="black" stroke-width="0.7" stroke-linecap="round"/>
<path d="M11 18V13.3425C11 13.1533 10.8467 13 10.6575 13H6C5.44772 13 5 13.4477 5 14V18C5 18.5523 5.44772 19 6 19H10C10.5523 19 11 18.5523 11 18Z" stroke="black" stroke-width="0.7" stroke-linecap="round"/>
<rect x="14" y="17" width="2" height="2" rx="0.2" fill="black"/>
<rect x="14" y="13" width="2" height="2" rx="0.2" fill="black"/>
<rect x="18" y="13" width="2" height="2" rx="0.2" fill="black"/>
<rect x="18" y="17" width="2" height="2" rx="0.2" fill="black"/>
<rect x="16" y="15" width="2" height="2" rx="0.2" fill="black"/>
</svg>
