<svg width="24" height="24" viewBox="0 0 24 24" fill="none" xmlns="http://www.w3.org/2000/svg">
<rect width="24" height="24" fill="white"/>
<rect x="13" y="14.7196" width="0.960187" height="7.43865" transform="rotate(-45 13 14.7196)" fill="#838383"/>
<path d="M16 10C16 13.3137 13.3137 16 10 16C6.68629 16 4 13.3137 4 10C4 6.68629 6.68629 4 10 4C13.3137 4 16 6.68629 16 10ZM4.91531 10C4.91531 12.8082 7.19181 15.0847 10 15.0847C12.8082 15.0847 15.0847 12.8082 15.0847 10C15.0847 7.19181 12.8082 4.91531 10 4.91531C7.19181 4.91531 4.91531 7.19181 4.91531 10Z" fill="#838383"/>
</svg>
