<svg width="24" height="24" viewBox="0 0 24 24" fill="none" xmlns="http://www.w3.org/2000/svg">
<path d="M17.7883 12.5C17.7883 15.889 15.0104 18.6364 11.5836 18.6364C8.1568 18.6364 5.37885 15.889 5.37885 12.5C5.37885 9.11098 8.1568 6.36364 11.5836 6.36364C15.0104 6.36364 17.7883 9.11098 17.7883 12.5ZM6.67834 12.5C6.67834 15.1792 8.87449 17.3512 11.5836 17.3512C14.2927 17.3512 16.4888 15.1792 16.4888 12.5C16.4888 9.82077 14.2927 7.64882 11.5836 7.64882C8.87449 7.64882 6.67834 9.82077 6.67834 12.5Z" fill="black"/>
<path d="M10.1033 7.0298L11.1322 5.29374C11.2099 5.16252 11.4019 5.16383 11.4791 5.2961L12.4822 7.01438L10.1033 7.0298Z" fill="black"/>
<path d="M13.9562 7.487L15.926 6.97868C16.0745 6.94035 16.2086 7.07556 16.1686 7.22325L15.6494 9.13972L13.9562 7.487Z" fill="black"/>
<path d="M16.9476 11.3103L18.7005 12.3264C18.834 12.4037 18.834 12.5948 18.7006 12.6709L16.9632 13.663L16.9476 11.3103Z" fill="black"/>
<path d="M16.6689 14.8971L17.3509 16.7886C17.4029 16.933 17.2789 17.0802 17.1274 17.0538L15.1517 16.7093L16.6689 14.8971Z" fill="black"/>
<path d="M13.0923 17.9702L12.0634 19.7063C11.9856 19.8375 11.7936 19.8362 11.7164 19.7039L10.7133 17.9856L13.0923 17.9702Z" fill="black"/>
<path d="M8.99846 17.4096L7.08077 18.0858C6.93626 18.1368 6.79086 18.0136 6.81771 17.863L7.16608 15.9091L8.99846 17.4096Z" fill="black"/>
<path d="M6.05239 14.1709L4.29946 13.1548C4.16603 13.0775 4.16597 12.8864 4.29935 12.8102L6.03679 11.8182L6.05239 14.1709Z" fill="black"/>
<path d="M6.51471 10.0038L6.00197 8.06049C5.96284 7.91219 6.09936 7.77638 6.24798 7.81576L8.18584 8.32929L6.51471 10.0038Z" fill="black"/>
</svg>
