<svg width="24" height="24" viewBox="0 0 24 24" fill="none" xmlns="http://www.w3.org/2000/svg">
<path d="M18 14.5C18 15.3284 17.3284 16 16.5 16C15.6716 16 15 15.3284 15 14.5C15 13.6716 15.6716 13 16.5 13C17.3284 13 18 13.6716 18 14.5Z" fill="black"/>
<path d="M18 9.95652V8.82609V8.4815C18 7.20578 16.8217 6.25614 15.5751 6.52714L6.10463 8.58595C5.45988 8.72611 5 9.29671 5 9.95652M18 9.95652H5M18 9.95652C19.1046 9.95652 20 10.852 20 11.9565V17C20 18.1046 19.1046 19 18 19H7C5.89543 19 5 18.1046 5 17V9.95652" stroke="black" stroke-width="0.7"/>
</svg>
