<svg width="700" height="700" viewBox="0 0 700 700" fill="none" xmlns="http://www.w3.org/2000/svg">
<g clip-path="url(#clip0_4_15)">
<path d="M298.039 608C305.564 621.034 309.326 627.551 312.843 631.457C332.704 653.514 367.296 653.514 387.157 631.457C390.674 627.551 394.436 621.034 401.962 608L601.147 263C608.673 249.966 612.435 243.449 614.059 238.451C623.231 210.222 605.935 180.264 576.902 174.093C571.762 173 564.236 173 549.186 173H150.814C135.764 173 128.238 173 123.098 174.093C94.0648 180.264 76.7686 210.222 85.9408 238.451C87.5648 243.449 91.3274 249.966 98.8526 263L298.039 608Z" fill="white"/>
<path d="M332.679 445C340.377 458.333 359.623 458.333 367.321 445L440.933 317.5C448.631 304.167 439.008 287.5 423.612 287.5H276.388C260.992 287.5 251.369 304.167 259.067 317.5L332.679 445Z" fill="black"/>
</g>
<defs>
<clipPath id="clip0_4_15">
<rect width="700" height="700" fill="white"/>
</clipPath>
</defs>
</svg>
